<svg width="1440" height="1024" viewBox="0 0 1440 1024" fill="none" xmlns="http://www.w3.org/2000/svg">
<g clip-path="url(#clip0_4847_26715)">
<rect width="1440" height="1024" fill="white"/>
<path d="M1056.3 -244.719C1056.3 -244.719 1310.65 -118.557 1351.82 -2.29849C1392.98 113.96 1242.16 68.9706 1202.01 123.029C1161.86 177.088 1495.52 312.384 1485.39 367.309C1475.27 422.233 1352.08 391.125 1353.23 442.346C1355.16 527.971 1714.29 587.873 1732.54 677.907C1740.51 717.212 1666.86 714.724 1685.25 756.276C1700.24 790.154 1780.15 847.581 1780.15 847.581" stroke="#D20240" stroke-opacity="0.1" stroke-width="2"/>
<path d="M1039.58 -230.61C1039.58 -230.61 1293.94 -104.448 1335.1 11.8109C1376.26 128.069 1225.44 83.08 1185.29 137.139C1145.15 191.197 1478.8 326.494 1468.67 381.418C1458.55 436.343 1335.37 405.235 1336.52 456.456C1338.44 542.08 1697.57 601.982 1715.83 692.017C1723.8 731.321 1650.14 728.833 1668.53 770.385C1683.52 804.263 1763.43 861.69 1763.43 861.69" stroke="#D20240" stroke-opacity="0.1" stroke-width="2"/>
<path d="M1022.87 -216.498C1022.87 -216.498 1277.22 -90.3363 1318.38 25.9222C1359.54 142.181 1208.72 97.1913 1168.57 151.25C1128.43 205.309 1462.08 340.605 1451.95 395.529C1441.83 450.454 1318.65 419.346 1319.8 470.567C1321.72 556.192 1680.85 616.094 1699.11 706.128C1707.08 745.433 1633.42 742.944 1651.81 784.497C1666.8 818.374 1746.71 875.801 1746.71 875.801" stroke="#D20240" stroke-opacity="0.1" stroke-width="2"/>
<path d="M1006.15 -202.387C1006.15 -202.387 1260.5 -76.225 1301.66 40.0335C1342.82 156.292 1192 111.303 1151.85 165.361C1111.71 219.42 1445.36 354.716 1435.23 409.641C1425.11 464.565 1301.93 433.457 1303.08 484.678C1305 570.303 1664.13 630.205 1682.39 720.239C1690.36 759.544 1616.7 757.056 1635.09 798.608C1650.08 832.486 1729.99 889.913 1729.99 889.913" stroke="#D20240" stroke-opacity="0.1" stroke-width="2"/>
<path d="M989.428 -188.278C989.428 -188.278 1243.78 -62.1156 1284.94 54.1429C1326.1 170.401 1175.28 125.412 1135.13 179.471C1094.99 233.529 1428.64 368.826 1418.52 423.75C1408.39 478.675 1285.21 447.567 1286.36 498.788C1288.28 584.412 1647.42 644.315 1665.67 734.349C1673.64 773.653 1599.98 771.165 1618.37 812.717C1633.37 846.595 1713.28 904.022 1713.28 904.022" stroke="#D20240" stroke-opacity="0.1" stroke-width="2"/>
<path d="M972.709 -174.166C972.709 -174.166 1227.06 -48.0043 1268.22 68.2542C1309.38 184.513 1158.56 139.523 1118.42 193.582C1078.27 247.641 1411.92 382.937 1401.8 437.861C1391.67 492.786 1268.49 461.678 1269.64 512.899C1271.56 598.524 1630.7 658.426 1648.95 748.46C1656.92 787.765 1583.26 785.276 1601.65 826.829C1616.65 860.706 1696.56 918.133 1696.56 918.133" stroke="#D20240" stroke-opacity="0.1" stroke-width="2"/>
<path d="M955.989 -160.055C955.989 -160.055 1210.34 -33.8929 1251.5 82.3656C1292.66 198.624 1141.84 153.635 1101.7 207.693C1061.55 261.752 1395.2 397.048 1385.08 451.973C1374.95 506.897 1251.77 475.789 1252.92 527.01C1254.84 612.635 1613.98 672.537 1632.23 762.571C1640.2 801.876 1566.54 799.388 1584.93 840.94C1599.93 874.818 1679.84 932.245 1679.84 932.245" stroke="#D20240" stroke-opacity="0.1" stroke-width="2"/>
<path d="M939.269 -145.944C939.269 -145.944 1193.62 -19.7816 1234.78 96.4769C1275.94 212.735 1125.12 167.746 1084.98 221.805C1044.83 275.863 1378.48 411.16 1368.36 466.084C1358.23 521.009 1235.05 489.901 1236.2 541.122C1238.13 626.746 1597.26 686.649 1615.51 776.683C1623.48 815.987 1549.82 813.499 1568.21 855.051C1583.21 888.929 1663.12 946.356 1663.12 946.356" stroke="#D20240" stroke-opacity="0.1" stroke-width="2"/>
<path d="M922.549 -131.832C922.549 -131.832 1176.9 -5.67028 1218.06 110.588C1259.22 226.847 1108.4 181.857 1068.26 235.916C1028.11 289.975 1361.76 425.271 1351.64 480.195C1341.51 535.12 1218.33 504.012 1219.48 555.233C1221.41 640.858 1580.54 700.76 1598.79 790.794C1606.76 830.099 1533.1 827.61 1551.49 869.163C1566.49 903.04 1646.4 960.467 1646.4 960.467" stroke="#D20240" stroke-opacity="0.1" stroke-width="2"/>
<path d="M905.829 -117.721C905.829 -117.721 1160.18 8.44105 1201.34 124.7C1242.5 240.958 1091.68 195.969 1051.54 250.027C1011.39 304.086 1345.04 439.382 1334.92 494.307C1324.79 549.231 1201.61 518.123 1202.76 569.344C1204.69 654.969 1563.82 714.871 1582.07 804.905C1590.04 844.21 1516.38 841.722 1534.77 883.274C1549.77 917.152 1629.68 974.579 1629.68 974.579" stroke="#D20240" stroke-opacity="0.1" stroke-width="2"/>
<path d="M889.109 -103.61C889.109 -103.61 1143.46 22.5524 1184.62 138.811C1225.78 255.069 1074.96 210.08 1034.82 264.139C994.67 318.197 1328.32 453.494 1318.2 508.418C1308.07 563.343 1184.89 532.235 1186.04 583.456C1187.97 669.08 1547.1 728.982 1565.35 819.017C1573.32 858.321 1499.66 855.833 1518.05 897.385C1533.05 931.263 1612.96 988.69 1612.96 988.69" stroke="#D20240" stroke-opacity="0.1" stroke-width="2"/>
<path d="M873.825 -90.7094C873.825 -90.7094 1128.18 35.4528 1169.34 151.711C1210.5 267.97 1059.68 222.98 1019.53 277.039C979.386 331.098 1313.04 466.394 1302.91 521.318C1292.79 576.243 1169.61 545.135 1170.76 596.356C1172.68 681.981 1531.81 741.883 1550.07 831.917C1558.04 871.222 1484.38 868.733 1502.77 910.286C1517.76 944.163 1597.67 1001.59 1597.67 1001.59" stroke="#D20240" stroke-opacity="0.1" stroke-width="2"/>
<path d="M858.541 -77.8109C858.541 -77.8109 1112.89 48.3512 1154.05 164.61C1195.21 280.868 1044.39 235.879 1004.25 289.937C964.102 343.996 1297.75 479.292 1287.63 534.217C1277.5 589.141 1154.32 558.033 1155.47 609.254C1157.4 694.879 1516.53 754.781 1534.78 844.816C1542.75 884.12 1469.1 881.632 1487.49 923.184C1502.48 957.062 1582.39 1014.49 1582.39 1014.49" stroke="#D20240" stroke-opacity="0.1" stroke-width="2"/>
<path d="M843.257 -64.9105C843.257 -64.9105 1097.61 61.2516 1138.77 177.51C1179.93 293.769 1029.11 248.779 988.964 302.838C948.818 356.897 1282.47 492.193 1272.35 547.117C1262.22 602.042 1139.04 570.934 1140.19 622.155C1142.11 707.779 1501.25 767.682 1519.5 857.716C1527.47 897.021 1453.81 894.532 1472.2 936.085C1487.2 969.962 1567.1 1027.39 1567.1 1027.39" stroke="#D20240" stroke-opacity="0.1" stroke-width="2"/>
<path d="M827.973 -52.0121C827.973 -52.0121 1082.32 74.15 1123.49 190.409C1164.65 306.667 1013.83 261.678 973.68 315.736C933.534 369.795 1267.19 505.091 1257.06 560.016C1246.94 614.94 1123.75 583.832 1124.91 635.053C1126.83 720.678 1485.96 780.58 1504.22 870.614C1512.18 909.919 1438.53 907.431 1456.92 948.983C1471.91 982.861 1551.82 1040.29 1551.82 1040.29" stroke="#D20240" stroke-opacity="0.1" stroke-width="2"/>
<path d="M812.689 -39.1117C812.689 -39.1117 1067.04 87.0504 1108.2 203.309C1149.36 319.567 998.542 274.578 958.396 328.637C918.25 382.695 1251.9 517.992 1241.78 572.916C1231.65 627.841 1108.47 596.733 1109.62 647.954C1111.55 733.578 1470.68 793.481 1488.93 883.515C1496.9 922.819 1423.24 920.331 1441.63 961.883C1456.63 995.761 1536.54 1053.19 1536.54 1053.19" stroke="#D20240" stroke-opacity="0.1" stroke-width="2"/>
<path d="M797.405 -26.2133C797.405 -26.2133 1051.76 99.9489 1092.92 216.207C1134.08 332.466 983.258 287.476 943.112 341.535C902.965 395.594 1236.62 530.89 1226.49 585.815C1216.37 640.739 1093.19 609.631 1094.34 660.852C1096.26 746.477 1455.39 806.379 1473.65 896.413C1481.62 935.718 1407.96 933.229 1426.35 974.782C1441.34 1008.66 1521.25 1066.09 1521.25 1066.09" stroke="#D20240" stroke-opacity="0.1" stroke-width="2"/>
<path d="M782.121 -13.3129C782.121 -13.3129 1036.47 112.849 1077.63 229.108C1118.79 345.366 967.974 300.377 927.828 354.436C887.681 408.494 1221.33 543.79 1211.21 598.715C1201.08 653.639 1077.9 622.531 1079.05 673.753C1080.98 759.377 1440.11 819.279 1458.36 909.314C1466.33 948.618 1392.68 946.13 1411.07 987.682C1426.06 1021.56 1505.97 1078.99 1505.97 1078.99" stroke="#D20240" stroke-opacity="0.1" stroke-width="2"/>
<path d="M766.837 -0.414432C766.837 -0.414432 1021.19 125.748 1062.35 242.006C1103.51 358.265 952.69 313.275 912.543 367.334C872.397 421.393 1206.05 556.689 1195.93 611.613C1185.8 666.538 1062.62 635.43 1063.77 686.651C1065.69 772.276 1424.83 832.178 1443.08 922.212C1451.05 961.517 1377.39 959.028 1395.78 1000.58C1410.77 1034.46 1490.68 1091.89 1490.68 1091.89" stroke="#D20240" stroke-opacity="0.1" stroke-width="2"/>
<path d="M751.553 12.486C751.553 12.486 1005.9 138.648 1047.07 254.907C1088.23 371.165 937.405 326.176 897.259 380.234C857.113 434.293 1190.77 569.589 1180.64 624.514C1170.52 679.438 1047.33 648.33 1048.49 699.551C1050.41 785.176 1409.54 845.078 1427.79 935.112C1435.76 974.417 1362.11 971.929 1380.5 1013.48C1395.49 1047.36 1475.4 1104.79 1475.4 1104.79" stroke="#D20240" stroke-opacity="0.1" stroke-width="2"/>
<path d="M736.269 25.3863C736.269 25.3863 990.621 151.548 1031.78 267.807C1072.94 384.065 922.122 339.076 881.975 393.135C841.829 447.193 1175.48 582.49 1165.36 637.414C1155.23 692.339 1032.05 661.231 1033.2 712.452C1035.13 798.076 1394.26 857.979 1412.51 948.013C1420.48 987.317 1346.82 984.829 1365.21 1026.38C1380.21 1060.26 1460.12 1117.69 1460.12 1117.69" stroke="#D20240" stroke-opacity="0.1" stroke-width="2"/>
<path d="M720.985 38.2848C720.985 38.2848 975.337 164.447 1016.5 280.705C1057.66 396.964 906.837 351.975 866.691 406.033C826.545 460.092 1160.2 595.388 1150.07 650.313C1139.95 705.237 1016.77 674.129 1017.92 725.35C1019.84 810.975 1378.97 870.877 1397.23 960.911C1405.2 1000.22 1331.54 997.727 1349.93 1039.28C1364.92 1073.16 1444.83 1130.58 1444.83 1130.58" stroke="#D20240" stroke-opacity="0.1" stroke-width="2"/>
<path d="M373.8 336.56V279.44L387.24 266H424.92L437.88 278.96V288.44H426.36V283.04L419.4 276.08H392.76L385.32 283.52V332.48L392.76 339.92H419.4L426.36 332.96V327.56H437.88V337.04L424.92 350H387.24L373.8 336.56ZM449.841 338.6V301.76L461.361 290.24H492.681L504.201 301.76V323.6H461.001V335.12L466.281 340.4H487.761L493.041 335.24V331.16H504.081V338.6L492.801 350H461.241L449.841 338.6ZM493.041 314.84V305.12L487.641 299.84H466.401L461.001 305.12V314.84H493.041ZM519.244 290.24H529.924V300.68L540.244 290.24H556.204V299.96H542.764L530.404 312.44V350H519.244V290.24ZM571.753 338.6V299.84H560.953V290.24H571.993V270.8H582.913V290.24H601.513V299.96H582.913V335L588.313 340.28H601.513V350H583.273L571.753 338.6ZM613.566 276.92V270.92L617.766 266.6H624.126L628.326 270.92V276.92L624.126 281.24H617.766L613.566 276.92ZM615.366 290.24H626.526V350H615.366V290.24ZM698.877 350H687.597V299.96H661.077V350H649.917V299.96H639.117V290.24H649.917V276.32L660.957 265.4H679.917V274.88H665.877L661.077 279.56V290.24H698.877V350ZM714.45 338.6V301.64L725.85 290.24H755.97L767.49 301.76V310.28H756.33V305.36L750.93 299.96H731.01L725.61 305.36V334.88L731.01 340.28H750.93L756.33 334.88V329.96H767.49V338.48L755.97 350H725.85L714.45 338.6ZM778.889 339.8V325.04L789.089 314.84H820.529V304.76L815.249 299.6H795.689L790.529 304.76V309.2H779.369V301.88L791.009 290.24H819.929L831.569 301.88V350H821.129V340.16L810.809 350H789.089L778.889 339.8ZM809.249 340.76L820.529 329.96V323.72H794.249L790.049 327.92V336.68L794.249 340.76H809.249ZM846.52 338.48V301.76L858.04 290.24H881.32L890.2 298.04V264.32H901.36V350H890.68V339.68L880.36 350H858.04L846.52 338.48ZM878.56 340.28L890.2 328.52V309.2L879.76 299.96H863.2L857.68 305.48V334.76L863.2 340.28H878.56ZM916.95 338.48V301.76L928.47 290.24H960.39L971.79 301.76V338.48L960.39 350H928.47L916.95 338.48ZM955.23 340.28L960.63 335V305.24L955.23 299.96H933.51L928.11 305.24V335L933.51 340.28H955.23Z" fill="black"/>
<rect width="266" height="1024" fill="#D10240"/>
<path d="M168 895.878C168 903.117 165.344 909.502 160.033 915.034C154.5 920.345 148.114 923 140.874 923H100.138V909.439H140.874C144.605 909.439 147.798 908.111 150.454 905.456C153.109 902.801 154.437 899.608 154.437 895.878V870.985C154.437 867.255 153.109 864.062 150.454 861.407C147.798 858.752 144.605 857.424 140.874 857.424H100.138V843.863H140.874C148.114 843.863 154.5 846.503 160.033 851.781C165.344 857.345 168 863.746 168 870.985V895.878Z" fill="white"/>
<path d="M116.357 820.772H168V834.332H100.138V817.879L151.829 765.343H100.138V751.782H168V768.235L116.357 820.772Z" fill="white"/>
<path d="M100.138 742.251V728.69H168V742.251H100.138Z" fill="white"/>
<path d="M168 703.797V719.207L100.138 682.697V668.472L168 631.962V647.372L115.598 675.584L168 703.797Z" fill="#111111"/>
<path d="M140.874 631.014H127.311C120.04 631.014 113.638 628.358 108.105 623.048C102.794 617.516 100.138 611.131 100.138 603.892V578.999C100.138 571.76 102.794 565.359 108.105 559.795C113.132 554.864 119.155 552.224 126.173 551.877V565.485C122.601 565.864 119.629 567.334 117.258 569.895C114.887 572.424 113.701 575.458 113.701 578.999L113.701 603.892C113.701 607.622 115.029 610.814 117.685 613.47C120.34 616.125 123.549 617.453 127.311 617.453H140.874C144.605 617.453 147.798 616.125 150.454 613.47C153.109 610.814 154.437 607.622 154.437 603.892V578.999C154.437 575.458 153.252 572.424 150.88 569.895C148.509 567.334 145.553 565.864 142.012 565.485V551.877C148.999 552.224 155.006 554.864 160.033 559.795C165.344 565.359 168 571.76 168 578.999V603.892C168 611.131 165.344 617.516 160.033 623.048C154.5 628.358 148.114 631.014 140.874 631.014Z" fill="#111111"/>
<path d="M168 535.471V550.881L100.138 514.371V500.146L168 463.636V479.046L115.598 507.258L168 535.471Z" fill="#111111"/>
<path d="M100.138 406.642C100.138 399.403 102.794 393.018 108.105 387.486C113.638 382.176 120.04 379.52 127.311 379.52H140.874C148.114 379.52 154.5 382.176 160.033 387.486C165.344 393.018 168 399.403 168 406.642V454.153H100.138V406.642ZM113.701 406.642V440.592H154.437V406.642C154.437 402.912 153.109 399.719 150.454 397.064C147.798 394.409 144.605 393.081 140.874 393.081H127.311C123.549 393.081 120.34 394.409 117.685 397.064C115.029 399.719 113.701 402.912 113.701 406.642Z" fill="#111111"/>
<path d="M140.874 370.037H127.311L127.311 301.047H140.874V370.037ZM100.138 301.047H113.701L113.701 370.037H100.138L100.138 301.047ZM154.437 301.047H168L168 370.037H154.437V301.047Z" fill="#111111"/>
<path d="M118.68 277.956H168V291.517H99V276.818L140.542 241.777L99 206.737V192.038H168V205.599H118.68L161.551 241.777L118.68 277.956Z" fill="#111111"/>
<path d="M168 135.329V148.89H141.491L100.138 182.555V165.059L128.734 141.778L100.138 118.496L100.138 101L142.344 135.329H168Z" fill="#111111"/>
</g>
<defs>
<clipPath id="clip0_4847_26715">
<rect width="1440" height="1024" fill="white"/>
</clipPath>
</defs>
</svg>
